<?xml version="1.0" encoding="utf-8"?>
<!-- Generator: Adobe Illustrator 26.0.1, SVG Export Plug-In . SVG Version: 6.00 Build 0)  -->
<svg version="1.1" id="Layer_1" xmlns="http://www.w3.org/2000/svg" xmlns:xlink="http://www.w3.org/1999/xlink" x="0px" y="0px"
	 viewBox="0 0 385.02 150.13" style="enable-background:new 0 0 385.02 150.13;" xml:space="preserve">
<style type="text/css">
	.st0{fill:#39474F;}
	.st1{fill:#333333;}
</style>
<g>
	<g>
		<path class="st0" d="M-211.28,159.87l-47.5,0c-0.96,0-1.74-0.78-1.74-1.74s0.78-1.74,1.74-1.74l47.5,0c0.96,0,1.74,0.78,1.74,1.74
			S-210.31,159.87-211.28,159.87z"/>
	</g>
	<g>
		<path class="st0" d="M-235.03,159.87c-0.96,0-1.74-0.78-1.74-1.74v-30.5c0-0.96,0.78-1.74,1.74-1.74c0.96,0,1.74,0.78,1.74,1.74
			v30.5C-233.28,159.09-234.06,159.87-235.03,159.87z"/>
	</g>
	<g>
		<path class="st0" d="M-234.79,113.76h-0.48c-13.93,0-25.26-11.33-25.26-25.26l0-41.55c0-13.93,11.33-25.26,25.26-25.26h0.48
			c13.93,0,25.26,11.33,25.26,25.26l0,41.55C-209.53,102.43-220.86,113.76-234.79,113.76z M-235.26,25.18
			c-12,0-21.77,9.76-21.77,21.77l0,41.55c0,12,9.76,21.77,21.77,21.77h0.47c12,0,21.77-9.76,21.77-21.77l0-41.55
			c0-12-9.76-21.77-21.77-21.77H-235.26z"/>
	</g>
	<g>
		<path class="st0" d="M-234.79,126.77h-0.48c-10.22,0-19.83-3.98-27.06-11.21c-7.23-7.23-11.21-16.84-11.21-27.06
			c0-0.96,0.78-1.74,1.74-1.74c0.96,0,1.74,0.78,1.74,1.74c0,9.29,3.62,18.02,10.18,24.59c6.57,6.57,15.3,10.18,24.59,10.18h0.48
			c9.29,0,18.02-3.62,24.59-10.18c6.57-6.57,10.18-15.3,10.18-24.59c0-0.96,0.78-1.74,1.74-1.74c0.96,0,1.74,0.78,1.74,1.74
			c0,10.22-3.98,19.83-11.21,27.06C-214.96,122.79-224.57,126.77-234.79,126.77z"/>
	</g>
</g>
<g>
	<path class="st1" d="M181.33,39.22c-0.11-0.18-0.48-0.45-1.11-0.82c-0.64-0.37-1.43-0.77-2.38-1.19c-0.95-0.42-2-0.79-3.13-1.11
		c-1.13-0.32-2.26-0.48-3.39-0.48c-1.48,0-2.63,0.26-3.44,0.76c-0.81,0.51-1.22,1.29-1.22,2.34c0,0.84,0.31,1.51,0.93,2
		c0.62,0.49,1.51,0.92,2.68,1.29c1.17,0.37,2.6,0.8,4.29,1.29c2.4,0.63,4.49,1.4,6.25,2.29c1.77,0.9,3.12,2.04,4.05,3.45
		c0.94,1.4,1.4,3.26,1.4,5.58c0,2.11-0.39,3.89-1.17,5.34c-0.78,1.46-1.83,2.63-3.15,3.53c-1.33,0.89-2.84,1.54-4.53,1.95
		c-1.7,0.4-3.44,0.61-5.25,0.61c-1.84,0-3.72-0.19-5.64-0.56c-1.93-0.37-3.77-0.9-5.54-1.59c-1.77-0.69-3.39-1.53-4.88-2.52
		l3.82-7.58c0.14,0.18,0.6,0.5,1.38,0.98c0.78,0.48,1.74,0.97,2.89,1.48c1.15,0.51,2.43,0.96,3.84,1.35
		c1.41,0.39,2.84,0.58,4.29,0.58c1.55,0,2.71-0.24,3.47-0.73c0.76-0.48,1.14-1.16,1.14-2.02c0-0.95-0.4-1.69-1.19-2.21
		c-0.79-0.53-1.87-1-3.23-1.42c-1.36-0.42-2.92-0.9-4.69-1.42c-2.3-0.7-4.2-1.49-5.7-2.37c-1.5-0.88-2.62-1.95-3.34-3.21
		c-0.72-1.27-1.09-2.85-1.09-4.74c0-2.64,0.63-4.86,1.88-6.67c1.25-1.81,2.94-3.18,5.06-4.11c2.12-0.93,4.43-1.4,6.94-1.4
		c1.77,0,3.47,0.21,5.11,0.64c1.64,0.42,3.18,0.95,4.61,1.59c1.43,0.64,2.71,1.27,3.84,1.91L181.33,39.22z"/>
	<path class="st1" d="M217.26,65.78h-8.48V50.46c0-1.76-0.36-3.06-1.09-3.89c-0.72-0.83-1.69-1.25-2.89-1.25
		c-0.64,0-1.35,0.2-2.15,0.59c-0.79,0.39-1.53,0.94-2.2,1.66c-0.67,0.71-1.18,1.55-1.54,2.5v15.71h-8.48V27.09h8.48v15.88
		c1.02-1.64,2.38-2.9,4.05-3.78c1.68-0.89,3.52-1.33,5.54-1.33c1.91,0,3.44,0.31,4.58,0.94c1.15,0.63,2.02,1.45,2.62,2.48
		s1.01,2.15,1.22,3.37s0.32,2.42,0.32,3.6V65.78z"/>
	<path class="st1" d="M221.13,57.59c0-1.81,0.51-3.39,1.54-4.75c1.02-1.36,2.44-2.43,4.24-3.21c1.8-0.78,3.87-1.18,6.2-1.18
		c1.13,0,2.24,0.1,3.34,0.29c1.09,0.19,2.05,0.47,2.86,0.82v-1.22c0-1.47-0.46-2.6-1.38-3.38c-0.92-0.79-2.31-1.18-4.19-1.18
		c-1.56,0-3.01,0.27-4.37,0.79c-1.36,0.53-2.8,1.29-4.32,2.28l-2.54-5.41c1.84-1.2,3.75-2.1,5.75-2.7c2-0.6,4.11-0.9,6.33-0.9
		c4.17,0,7.41,0.98,9.73,2.94c2.31,1.96,3.47,4.79,3.47,8.49v7.12c0,0.83,0.13,1.41,0.4,1.74c0.26,0.33,0.73,0.53,1.4,0.6v7.05
		c-0.71,0.14-1.37,0.25-1.99,0.32c-0.62,0.07-1.16,0.11-1.62,0.11c-1.59,0-2.8-0.32-3.63-0.95c-0.83-0.64-1.35-1.5-1.56-2.6
		l-0.16-1.22c-1.24,1.59-2.71,2.8-4.43,3.63c-1.71,0.83-3.51,1.25-5.38,1.25c-1.84,0-3.49-0.38-4.96-1.15
		c-1.47-0.77-2.62-1.81-3.47-3.13C221.56,60.7,221.13,59.22,221.13,57.59z M237.99,58.58c0.39-0.31,0.71-0.65,0.95-1.02
		c0.25-0.37,0.37-0.73,0.37-1.07v-2.4c-0.71-0.27-1.49-0.48-2.36-0.64c-0.87-0.15-1.67-0.23-2.41-0.23c-1.56,0-2.84,0.33-3.87,1
		c-1.03,0.66-1.54,1.54-1.54,2.63c0,0.61,0.18,1.18,0.53,1.69c0.35,0.51,0.84,0.92,1.46,1.23c0.62,0.31,1.35,0.46,2.2,0.46
		c0.85,0,1.7-0.15,2.54-0.46C236.72,59.45,237.42,59.06,237.99,58.58z"/>
	<path class="st1" d="M272.65,65.78l-7.26-11l-2.97,2.99v8.02h-8.48V27.09h8.48v22.55l9.43-11.37h8.96l-10.02,11.84l10.87,15.67
		H272.65z"/>
	<path class="st1" d="M281.92,57.59c0-1.81,0.51-3.39,1.54-4.75c1.02-1.36,2.44-2.43,4.24-3.21c1.8-0.78,3.87-1.18,6.2-1.18
		c1.13,0,2.24,0.1,3.34,0.29c1.09,0.19,2.05,0.47,2.86,0.82v-1.22c0-1.47-0.46-2.6-1.38-3.38c-0.92-0.79-2.31-1.18-4.19-1.18
		c-1.56,0-3.01,0.27-4.37,0.79c-1.36,0.53-2.8,1.29-4.32,2.28l-2.54-5.41c1.84-1.2,3.75-2.1,5.75-2.7c2-0.6,4.11-0.9,6.33-0.9
		c4.17,0,7.41,0.98,9.73,2.94c2.31,1.96,3.47,4.79,3.47,8.49v7.12c0,0.83,0.13,1.41,0.4,1.74c0.26,0.33,0.73,0.53,1.4,0.6v7.05
		c-0.71,0.14-1.37,0.25-1.99,0.32c-0.62,0.07-1.16,0.11-1.62,0.11c-1.59,0-2.8-0.32-3.63-0.95c-0.83-0.64-1.35-1.5-1.56-2.6
		l-0.16-1.22c-1.24,1.59-2.71,2.8-4.43,3.63c-1.71,0.83-3.51,1.25-5.38,1.25c-1.84,0-3.49-0.38-4.96-1.15
		c-1.47-0.77-2.62-1.81-3.47-3.13C282.35,60.7,281.92,59.22,281.92,57.59z M298.78,58.58c0.39-0.31,0.71-0.65,0.95-1.02
		c0.25-0.37,0.37-0.73,0.37-1.07v-2.4c-0.71-0.27-1.49-0.48-2.36-0.64c-0.87-0.15-1.67-0.23-2.41-0.23c-1.56,0-2.84,0.33-3.87,1
		c-1.03,0.66-1.54,1.54-1.54,2.63c0,0.61,0.18,1.18,0.53,1.69c0.35,0.51,0.84,0.92,1.46,1.23c0.62,0.31,1.35,0.46,2.2,0.46
		c0.85,0,1.7-0.15,2.54-0.46C297.51,59.45,298.21,59.06,298.78,58.58z"/>
	<path class="st1" d="M332.38,45.21c-2.05,0-3.91,0.33-5.57,0.98c-1.66,0.65-2.86,1.62-3.6,2.89v16.69h-8.48V38.27h7.79v5.3
		c0.95-1.87,2.19-3.34,3.71-4.4c1.52-1.06,3.11-1.61,4.77-1.64c0.39,0,0.68,0,0.88,0c0.19,0,0.36,0.02,0.5,0.05V45.21z"/>
	<path class="st1" d="M335.03,41.56l1.27-6.73h-2.38v-7.74h8.64v7.95l-2.01,6.52H335.03z"/>
	<path class="st1" d="M354.59,66.31c-2.37,0-4.68-0.39-6.94-1.17c-2.26-0.78-4.17-1.93-5.72-3.44l2.92-5.35
		c1.7,1.24,3.35,2.17,4.96,2.81c1.61,0.64,3.12,0.95,4.53,0.95c1.09,0,1.94-0.17,2.54-0.5c0.6-0.33,0.9-0.85,0.9-1.55
		c0-0.52-0.18-0.93-0.53-1.23c-0.35-0.3-0.89-0.57-1.62-0.81c-0.72-0.24-1.62-0.51-2.68-0.78c-2.12-0.7-3.89-1.38-5.3-2.04
		c-1.41-0.66-2.47-1.47-3.18-2.43c-0.71-0.96-1.06-2.2-1.06-3.73c0-1.84,0.47-3.45,1.4-4.83c0.94-1.37,2.27-2.45,4-3.21
		c1.73-0.77,3.8-1.15,6.2-1.15c1.91,0,3.77,0.3,5.59,0.9c1.82,0.6,3.52,1.61,5.11,3.02l-3.29,5.3c-1.59-1.09-3-1.89-4.24-2.39
		c-1.24-0.49-2.44-0.74-3.6-0.74c-0.6,0-1.15,0.07-1.64,0.21c-0.5,0.14-0.89,0.37-1.19,0.7c-0.3,0.33-0.45,0.75-0.45,1.27
		s0.15,0.94,0.45,1.25c0.3,0.31,0.78,0.58,1.43,0.81c0.65,0.23,1.48,0.49,2.46,0.81c2.3,0.66,4.2,1.33,5.72,2
		c1.52,0.68,2.66,1.51,3.42,2.5s1.14,2.3,1.14,3.93c0,2.77-1.02,4.95-3.05,6.53C360.85,65.52,358.08,66.31,354.59,66.31z"/>
	<path class="st1" d="M158.75,116.78V79.15h16.06c1.8,0,3.45,0.36,4.96,1.09c1.5,0.72,2.8,1.7,3.9,2.92
		c1.09,1.22,1.94,2.59,2.54,4.11c0.6,1.52,0.9,3.07,0.9,4.66c0,2.16-0.5,4.21-1.51,6.15c-1.01,1.94-2.4,3.52-4.19,4.74
		c-1.78,1.22-3.9,1.83-6.33,1.83h-7.63v12.14H158.75z M167.44,97.06h7.1c0.67,0,1.29-0.19,1.85-0.58c0.56-0.39,1.02-0.97,1.38-1.75
		c0.35-0.78,0.53-1.73,0.53-2.86c0-1.17-0.2-2.13-0.61-2.89c-0.41-0.76-0.92-1.32-1.54-1.67c-0.62-0.35-1.26-0.53-1.93-0.53h-6.78
		V97.06z"/>
	<path class="st1" d="M203.75,117.31c-2.37,0-4.48-0.38-6.33-1.15c-1.86-0.77-3.42-1.81-4.69-3.13c-1.27-1.32-2.24-2.84-2.89-4.54
		c-0.65-1.71-0.98-3.5-0.98-5.38c0-1.92,0.33-3.73,0.98-5.43c0.65-1.71,1.62-3.22,2.89-4.54c1.27-1.32,2.83-2.37,4.69-3.13
		c1.85-0.77,3.97-1.15,6.33-1.15s4.47,0.38,6.31,1.15c1.84,0.77,3.39,1.81,4.66,3.13c1.27,1.32,2.24,2.84,2.91,4.54
		s1.01,3.52,1.01,5.43c0,1.88-0.34,3.67-1.01,5.38c-0.67,1.71-1.64,3.22-2.91,4.54c-1.27,1.32-2.83,2.37-4.66,3.13
		C208.22,116.92,206.12,117.31,203.75,117.31z M197.55,103.1c0,1.41,0.27,2.64,0.82,3.71c0.55,1.06,1.28,1.89,2.2,2.47
		c0.92,0.58,1.98,0.87,3.18,0.87c1.17,0,2.22-0.3,3.15-0.9s1.67-1.43,2.2-2.5c0.53-1.06,0.79-2.28,0.79-3.65
		c0-1.41-0.27-2.64-0.79-3.7c-0.53-1.06-1.26-1.89-2.2-2.47s-1.99-0.87-3.15-0.87c-1.2,0-2.26,0.29-3.18,0.87
		c-0.92,0.58-1.65,1.41-2.2,2.47C197.82,100.46,197.55,101.7,197.55,103.1z"/>
	<path class="st1" d="M221.24,103.05c0-2.68,0.53-5.09,1.59-7.23c1.06-2.14,2.51-3.84,4.35-5.09c1.84-1.25,3.96-1.88,6.36-1.88
		c1.94,0,3.71,0.47,5.3,1.4c1.59,0.94,2.79,2.16,3.61,3.68V78.09h8.48v29.26c0,0.85,0.14,1.44,0.42,1.78s0.74,0.54,1.38,0.61v7.05
		c-1.48,0.28-2.69,0.42-3.6,0.42c-1.45,0-2.62-0.32-3.53-0.95c-0.9-0.64-1.46-1.52-1.67-2.65l-0.16-1.43
		c-0.99,1.73-2.33,3.02-4.03,3.87c-1.7,0.85-3.48,1.27-5.35,1.27c-1.91,0-3.67-0.36-5.27-1.07c-1.61-0.71-3-1.71-4.19-3
		c-1.18-1.29-2.09-2.8-2.73-4.54C221.56,106.95,221.24,105.07,221.24,103.05z M242.49,106.4v-5.66c-0.35-0.93-0.86-1.73-1.51-2.42
		s-1.4-1.23-2.22-1.65c-0.83-0.41-1.67-0.62-2.52-0.62c-0.92,0-1.76,0.19-2.52,0.57c-0.76,0.38-1.42,0.9-1.99,1.57
		c-0.57,0.67-1,1.43-1.3,2.29c-0.3,0.86-0.45,1.77-0.45,2.73c0,1,0.17,1.91,0.5,2.75c0.34,0.84,0.8,1.58,1.4,2.21
		c0.6,0.63,1.31,1.12,2.12,1.47s1.7,0.51,2.65,0.51c0.6,0,1.18-0.09,1.75-0.28c0.56-0.19,1.1-0.44,1.62-0.75
		c0.51-0.31,0.98-0.7,1.4-1.18S242.21,106.95,242.49,106.4z"/>
	<path class="st1" d="M270.79,117.31c-2.37,0-4.47-0.38-6.31-1.15c-1.84-0.77-3.4-1.81-4.69-3.13c-1.29-1.32-2.27-2.84-2.94-4.54
		c-0.67-1.71-1.01-3.52-1.01-5.43c0-2.51,0.59-4.84,1.78-7c1.18-2.16,2.89-3.9,5.11-5.22c2.23-1.32,4.91-1.99,8.06-1.99
		c3.18,0,5.87,0.68,8.08,2.04c2.21,1.36,3.86,3.14,4.96,5.33l-8.27,2.49c-0.53-0.85-1.21-1.5-2.04-1.96
		c-0.83-0.46-1.76-0.69-2.78-0.69c-1.17,0-2.22,0.29-3.15,0.87c-0.94,0.58-1.68,1.39-2.23,2.42c-0.55,1.03-0.82,2.27-0.82,3.71
		c0,1.41,0.28,2.64,0.85,3.7c0.57,1.06,1.31,1.9,2.23,2.5c0.92,0.6,1.96,0.9,3.13,0.9c0.71,0,1.37-0.11,1.99-0.34
		c0.62-0.23,1.18-0.56,1.7-0.98c0.51-0.42,0.91-0.9,1.19-1.43l8.27,2.54c-0.67,1.41-1.63,2.68-2.89,3.79
		c-1.25,1.11-2.73,1.99-4.43,2.62S272.95,117.31,270.79,117.31z"/>
	<path class="st1" d="M285.95,108.59c0-1.81,0.51-3.39,1.54-4.75c1.02-1.36,2.44-2.43,4.24-3.21c1.8-0.78,3.87-1.17,6.2-1.17
		c1.13,0,2.24,0.1,3.34,0.29c1.09,0.19,2.05,0.47,2.86,0.82v-1.22c0-1.47-0.46-2.6-1.38-3.38c-0.92-0.79-2.31-1.18-4.19-1.18
		c-1.56,0-3.01,0.27-4.37,0.79c-1.36,0.53-2.8,1.29-4.32,2.28l-2.54-5.41c1.84-1.2,3.75-2.1,5.75-2.7c2-0.6,4.11-0.9,6.33-0.9
		c4.17,0,7.41,0.98,9.73,2.94c2.31,1.96,3.47,4.79,3.47,8.49v7.12c0,0.83,0.13,1.41,0.4,1.74c0.26,0.33,0.73,0.53,1.4,0.6v7.05
		c-0.71,0.14-1.37,0.25-1.99,0.32c-0.62,0.07-1.16,0.11-1.62,0.11c-1.59,0-2.8-0.32-3.63-0.95c-0.83-0.64-1.35-1.5-1.56-2.6
		l-0.16-1.22c-1.24,1.59-2.71,2.8-4.43,3.63c-1.71,0.83-3.51,1.25-5.38,1.25c-1.84,0-3.49-0.38-4.96-1.15
		c-1.47-0.77-2.62-1.81-3.47-3.13C286.38,111.7,285.95,110.22,285.95,108.59z M302.81,109.58c0.39-0.31,0.71-0.65,0.95-1.02
		c0.25-0.38,0.37-0.73,0.37-1.07v-2.4c-0.71-0.27-1.49-0.48-2.36-0.64c-0.87-0.15-1.67-0.23-2.41-0.23c-1.56,0-2.84,0.33-3.87,1
		c-1.03,0.66-1.54,1.54-1.54,2.63c0,0.61,0.18,1.17,0.53,1.69c0.35,0.51,0.84,0.92,1.46,1.23s1.35,0.46,2.2,0.46
		c0.85,0,1.7-0.15,2.54-0.46C301.53,110.45,302.24,110.06,302.81,109.58z"/>
	<path class="st1" d="M329.41,117.31c-2.37,0-4.68-0.39-6.94-1.17c-2.26-0.78-4.17-1.93-5.72-3.45l2.92-5.35
		c1.7,1.24,3.35,2.17,4.96,2.81c1.61,0.64,3.12,0.95,4.53,0.95c1.09,0,1.94-0.17,2.54-0.5s0.9-0.85,0.9-1.55
		c0-0.52-0.18-0.93-0.53-1.23c-0.35-0.3-0.89-0.57-1.62-0.81c-0.72-0.24-1.62-0.5-2.68-0.78c-2.12-0.7-3.89-1.38-5.3-2.04
		c-1.41-0.66-2.47-1.47-3.18-2.43c-0.71-0.96-1.06-2.2-1.06-3.73c0-1.85,0.47-3.46,1.4-4.83c0.94-1.37,2.27-2.45,4-3.21
		c1.73-0.77,3.8-1.15,6.2-1.15c1.91,0,3.77,0.3,5.59,0.9c1.82,0.6,3.52,1.61,5.11,3.02l-3.29,5.3c-1.59-1.09-3-1.89-4.24-2.39
		c-1.24-0.49-2.44-0.74-3.6-0.74c-0.6,0-1.15,0.07-1.64,0.21c-0.5,0.14-0.89,0.37-1.19,0.7c-0.3,0.33-0.45,0.75-0.45,1.27
		c0,0.52,0.15,0.94,0.45,1.25c0.3,0.31,0.78,0.58,1.43,0.81c0.65,0.23,1.48,0.49,2.46,0.81c2.3,0.66,4.2,1.33,5.72,2
		s2.66,1.51,3.42,2.5c0.76,0.99,1.14,2.3,1.14,3.93c0,2.77-1.02,4.95-3.05,6.53C335.67,116.52,332.91,117.31,329.41,117.31z"/>
	<path class="st1" d="M362.91,115.29c-0.78,0.32-1.63,0.64-2.57,0.95c-0.94,0.32-1.92,0.57-2.94,0.77
		c-1.03,0.19-2.03,0.29-3.02,0.29c-1.41,0-2.71-0.24-3.9-0.71c-1.18-0.47-2.12-1.24-2.81-2.32c-0.69-1.08-1.03-2.51-1.03-4.28V95.68
		h-3.55v-6.41h3.55v-8.85h8.48v8.85h5.67v6.41h-5.67v11.35c0,0.9,0.23,1.55,0.69,1.94c0.46,0.4,1.04,0.6,1.75,0.6
		c0.6,0,1.25-0.11,1.93-0.32c0.69-0.21,1.28-0.44,1.78-0.69L362.91,115.29z"/>
</g>
<g>
	<g>
		<path class="st1" d="M23,85.12c-2.63,0-4.76-2.13-4.76-4.76V68.7c0-2.63,2.13-4.76,4.76-4.76s4.76,2.13,4.76,4.76v11.66
			C27.76,82.99,25.63,85.12,23,85.12z"/>
	</g>
	<g>
		<path class="st1" d="M37.27,103.19c-2.63,0-4.76-2.13-4.76-4.76V50.62c0-2.63,2.13-4.76,4.76-4.76c2.63,0,4.76,2.13,4.76,4.76
			v47.81C42.03,101.06,39.9,103.19,37.27,103.19z"/>
	</g>
	<g>
		<path class="st1" d="M51.55,96.96c-2.63,0-4.76-2.13-4.76-4.76V56.86c0-2.63,2.13-4.76,4.76-4.76c2.63,0,4.76,2.13,4.76,4.76V92.2
			C56.31,94.83,54.18,96.96,51.55,96.96z"/>
	</g>
	<g>
		<path class="st1" d="M65.82,112.2c-2.63,0-4.76-2.13-4.76-4.76V41.62c0-2.63,2.13-4.76,4.76-4.76c2.63,0,4.76,2.13,4.76,4.76
			v65.83C70.58,110.07,68.45,112.2,65.82,112.2z"/>
	</g>
	<g>
		<path class="st1" d="M80.1,128.83c-2.63,0-4.76-2.13-4.76-4.76V24.99c0-2.63,2.13-4.76,4.76-4.76s4.76,2.13,4.76,4.76v99.09
			C84.86,126.7,82.73,128.83,80.1,128.83z"/>
	</g>
	<g>
		<path class="st1" d="M94.37,112.2c-2.63,0-4.76-2.13-4.76-4.76V41.62c0-2.63,2.13-4.76,4.76-4.76c2.63,0,4.76,2.13,4.76,4.76
			v65.83C99.13,110.07,97,112.2,94.37,112.2z"/>
	</g>
	<g>
		<path class="st1" d="M108.65,96.96c-2.63,0-4.76-2.13-4.76-4.76V56.86c0-2.63,2.13-4.76,4.76-4.76s4.76,2.13,4.76,4.76V92.2
			C113.41,94.83,111.28,96.96,108.65,96.96z"/>
	</g>
	<g>
		<path class="st1" d="M122.92,103.19c-2.63,0-4.76-2.13-4.76-4.76V50.62c0-2.63,2.13-4.76,4.76-4.76s4.76,2.13,4.76,4.76v47.81
			C127.68,101.06,125.55,103.19,122.92,103.19z"/>
	</g>
	<g>
		<path class="st1" d="M137.2,85.12c-2.63,0-4.76-2.13-4.76-4.76V68.7c0-2.63,2.13-4.76,4.76-4.76s4.76,2.13,4.76,4.76v11.66
			C141.96,82.99,139.83,85.12,137.2,85.12z"/>
	</g>
</g>
<g>
</g>
<g>
</g>
<g>
</g>
<g>
</g>
<g>
</g>
<g>
</g>
</svg>
